<?xml version="1.0" standalone="no"?>
<!DOCTYPE svg PUBLIC "-//W3C//DTD SVG 20010904//EN"
 "http://www.w3.org/TR/2001/REC-SVG-20010904/DTD/svg10.dtd">
<svg version="1.0" xmlns="http://www.w3.org/2000/svg"
 width="1620.000000pt" height="1620.000000pt" viewBox="0 0 1620.000000 1620.000000"
 preserveAspectRatio="xMidYMid meet">

<g transform="translate(0.000000,1620.000000) scale(0.100000,-0.100000)"
fill="#000000" stroke="none">
<path d="M786 13481 c-9 -16 -28 -38 -43 -50 -22 -16 -25 -23 -14 -30 33 -22
91 29 91 80 0 37 -15 37 -34 0z"/>
<path d="M7805 12944 c-416 -63 -726 -247 -937 -557 -78 -115 -162 -331 -193
-496 -19 -106 -20 -322 0 -434 55 -313 221 -602 527 -913 76 -77 138 -147 137
-155 0 -8 -81 -81 -180 -164 -99 -82 -219 -183 -267 -222 -48 -40 -122 -101
-166 -135 -43 -35 -110 -92 -149 -127 -40 -35 -96 -82 -126 -104 -29 -22 -78
-61 -107 -88 -30 -27 -89 -76 -131 -110 -140 -111 -353 -321 -459 -453 -117
-145 -200 -299 -252 -466 -57 -183 -57 -179 -57 -1020 l0 -775 410 0 410 0 5
720 c5 664 7 724 24 775 65 195 216 373 556 656 85 71 194 162 241 204 47 41
130 113 184 160 54 47 140 121 190 165 51 44 152 132 225 195 74 63 174 150
223 193 l89 77 27 -22 c79 -64 133 -109 202 -168 41 -36 129 -110 194 -165
253 -213 414 -350 505 -429 52 -45 131 -110 175 -144 238 -183 432 -386 495
-517 22 -44 49 -118 61 -165 22 -83 23 -102 28 -810 l6 -725 399 -3 c286 -1
403 1 412 9 12 9 14 127 14 678 0 767 -8 934 -50 1141 -34 163 -69 244 -187
424 -101 154 -317 361 -626 599 -34 26 -102 80 -150 120 -48 39 -119 97 -157
127 -37 30 -110 89 -162 131 -207 170 -348 284 -435 355 -51 41 -93 78 -93 81
0 3 46 54 103 112 208 215 329 382 436 601 37 76 56 138 90 291 58 263 15 627
-100 846 -81 154 -136 231 -238 334 -182 183 -388 293 -656 351 -66 14 -139
20 -275 23 -102 2 -198 1 -215 -1z m310 -849 c235 -50 367 -226 352 -470 -10
-157 -56 -274 -165 -415 -73 -94 -279 -310 -297 -310 -13 0 -269 255 -316 315
-190 242 -236 464 -138 658 31 60 138 163 196 188 110 48 244 60 368 34z"/>
<path d="M2585 11926 c-43 -46 -61 -112 -45 -161 15 -45 62 -100 103 -122 40
-20 126 -19 171 2 47 23 96 97 96 146 0 37 0 38 -34 32 -88 -14 -196 37 -227
107 -8 16 -18 30 -23 30 -5 0 -23 -15 -41 -34z"/>
<path d="M596 11585 c-11 -30 -6 -40 11 -22 12 12 14 20 6 28 -7 7 -12 6 -17
-6z"/>
<path d="M49 11293 c-27 -16 -54 -52 -46 -59 3 -3 29 -6 59 -8 71 -4 161 -45
217 -99 48 -47 155 -172 220 -260 24 -32 46 -56 48 -54 7 7 -38 128 -74 201
-67 136 -150 229 -250 280 -42 21 -139 21 -174 -1z"/>
<path d="M347 11273 c58 -76 113 -171 168 -288 90 -194 110 -230 113 -211 9
44 -74 233 -162 371 -57 88 -121 165 -139 165 -5 0 4 -17 20 -37z"/>
<path d="M5340 10801 c0 -5 5 -13 10 -16 6 -3 10 -2 10 4 0 5 -4 13 -10 16 -5
3 -10 2 -10 -4z"/>
<path d="M2 9788 c3 -66 5 -73 23 -71 49 5 329 -54 437 -92 36 -13 76 -33 87
-44 12 -12 28 -21 38 -21 9 0 39 -15 67 -32 27 -18 58 -37 67 -43 20 -12 80
-57 179 -133 82 -62 426 -402 585 -577 119 -132 269 -263 368 -324 100 -61
194 -103 225 -99 20 2 10 9 -48 32 -91 35 -164 81 -248 153 -76 67 -233 239
-324 355 -123 157 -187 224 -389 405 -146 131 -241 203 -377 285 -170 103
-592 278 -670 278 -22 0 -23 -3 -20 -72z"/>
<path d="M2935 9817 c-9 -21 2 -69 18 -79 25 -16 68 -8 93 17 20 20 23 28 14
45 -14 25 -32 26 -48 0 -18 -29 -46 -25 -59 8 -9 23 -11 24 -18 9z"/>
<path d="M2792 9733 c-24 -44 37 -73 71 -35 22 24 21 29 -5 35 -13 2 -31 8
-40 11 -11 5 -20 1 -26 -11z"/>
<path d="M0 9422 c0 -35 4 -39 63 -74 34 -20 81 -46 104 -57 59 -30 247 -173
336 -256 41 -38 109 -101 151 -140 43 -38 109 -112 147 -162 66 -88 235 -362
310 -503 84 -161 304 -481 403 -587 42 -45 65 -63 84 -63 24 0 25 1 19 56 -4
40 -13 64 -29 81 -22 24 -22 25 -4 38 18 13 18 16 2 40 -9 14 -21 25 -26 25
-6 0 -10 5 -10 11 0 8 4 8 13 1 6 -5 30 -13 52 -16 48 -7 82 8 104 47 10 18
31 34 56 43 22 7 45 20 51 29 6 8 17 15 24 15 7 0 30 19 51 43 57 62 50 92 -9
42 -17 -14 -35 -25 -40 -25 -6 0 -15 -7 -19 -15 -11 -19 -95 -41 -188 -50
-139 -14 -208 22 -399 204 -86 83 -121 134 -258 381 -151 272 -198 349 -251
415 -64 78 -150 165 -164 165 -7 0 -13 4 -13 9 0 5 -20 23 -45 39 -25 17 -55
41 -65 55 -11 14 -59 44 -106 67 -46 23 -106 57 -132 75 -56 38 -120 72 -174
91 l-38 13 0 -37z m600 -437 c20 -24 6 -28 -15 -5 -10 11 -13 20 -8 20 6 0 16
-7 23 -15z"/>
<path d="M1130 9289 c0 -5 5 -7 10 -4 6 3 10 8 10 11 0 2 -4 4 -10 4 -5 0 -10
-5 -10 -11z"/>
<path d="M2488 8333 c7 -3 16 -2 19 1 4 3 -2 6 -13 5 -11 0 -14 -3 -6 -6z"/>
<path d="M7502 7960 l-22 -21 0 -589 c0 -577 0 -590 20 -610 19 -19 33 -20
495 -20 459 0 475 1 485 19 6 13 10 223 10 614 0 563 -1 595 -18 610 -17 15
-65 17 -483 17 -454 0 -466 0 -487 -20z"/>
<path d="M3875 5623 c-171 -21 -279 -61 -358 -133 -165 -151 -167 -407 -5
-555 70 -64 123 -90 387 -185 291 -105 297 -108 326 -142 19 -22 25 -41 25
-75 0 -60 -25 -99 -80 -126 -39 -19 -61 -22 -160 -22 -69 0 -134 6 -163 14
-58 17 -113 65 -122 107 -4 16 -8 35 -11 42 -2 9 -46 12 -174 12 -193 0 -180
8 -159 -92 15 -73 65 -163 113 -205 55 -48 164 -99 256 -119 116 -27 378 -24
492 4 211 52 323 158 347 327 10 71 0 175 -23 228 -49 112 -111 151 -450 277
-152 56 -291 112 -308 124 -50 34 -70 68 -70 120 -2 90 60 137 187 144 95 5
181 -11 227 -41 40 -28 78 -82 78 -113 l0 -24 170 0 170 0 0 39 c0 107 -71
233 -167 297 -117 78 -345 120 -528 97z"/>
<path d="M5230 5624 c-163 -20 -288 -71 -365 -148 -61 -61 -92 -124 -104 -208
-25 -181 51 -320 226 -410 37 -19 172 -72 300 -118 127 -45 245 -91 262 -101
44 -27 64 -63 63 -115 0 -56 -21 -88 -75 -116 -37 -21 -56 -23 -172 -23 -113
0 -136 3 -177 22 -62 28 -97 67 -104 115 l-7 38 -173 0 c-133 0 -174 -3 -174
-12 1 -41 33 -156 54 -192 59 -101 177 -178 323 -210 152 -34 377 -30 524 8
146 38 258 125 300 233 18 46 23 79 23 158 0 87 -3 107 -26 156 -30 66 -89
129 -150 160 -24 12 -165 68 -315 124 -150 56 -284 110 -298 119 -46 30 -67
75 -62 134 5 65 30 95 100 118 62 21 212 15 272 -10 59 -25 104 -73 112 -118
l6 -38 171 0 172 0 -8 68 c-21 179 -146 299 -358 347 -73 16 -272 27 -340 19z"/>
<path d="M1660 4875 l0 -725 175 0 175 0 2 493 3 492 165 -492 165 -493 92 0
91 0 162 488 c90 268 166 491 171 496 5 6 9 -202 9 -487 l0 -497 170 0 170 0
0 725 0 725 -244 0 -245 0 -6 -22 c-46 -153 -269 -845 -274 -851 -4 -4 -70
190 -148 430 l-140 438 -246 3 -247 2 0 -725z"/>
<path d="M8180 4973 c-112 -346 -218 -672 -236 -726 l-33 -97 186 2 187 3 47
150 47 150 254 3 254 2 49 -155 48 -155 184 0 c100 0 183 3 183 8 0 4 -105
329 -233 722 l-233 715 -250 3 -251 2 -203 -627z m535 33 c41 -132 75 -245 75
-253 0 -10 -34 -13 -161 -13 -148 0 -160 1 -155 18 14 48 148 479 153 492 3 8
7 11 9 5 2 -5 37 -118 79 -249z"/>
<path d="M9460 4875 l0 -725 433 0 c471 0 515 4 624 57 74 35 179 139 220 218
18 33 44 101 59 150 27 86 28 100 29 295 0 236 -11 300 -76 436 -50 106 -118
181 -209 228 -118 62 -152 66 -642 66 l-438 0 0 -725z m788 432 c153 -40 221
-159 230 -403 4 -111 1 -144 -17 -214 -31 -122 -82 -191 -171 -233 -41 -20
-65 -22 -262 -25 l-218 -4 0 446 0 446 193 0 c129 0 210 -4 245 -13z"/>
<path d="M10980 4875 l0 -725 175 0 175 0 2 488 3 487 164 -487 163 -488 97 0
96 0 159 478 c87 262 161 480 165 484 3 4 4 -211 2 -477 l-3 -485 181 0 181 0
0 725 0 725 -250 0 -249 0 -60 -187 c-33 -104 -96 -300 -139 -437 -44 -136
-82 -244 -84 -240 -3 5 -35 101 -71 214 -36 113 -97 305 -137 428 l-71 222
-250 0 -249 0 0 -725z"/>
<path d="M12710 4875 l0 -725 175 0 175 0 0 725 0 725 -175 0 -175 0 0 -725z"/>
<path d="M13240 4875 l0 -725 175 0 175 0 2 435 3 435 319 -435 319 -435 158
0 159 0 0 725 0 725 -180 0 -180 0 -2 -432 -3 -432 -315 431 -315 432 -157 0
-158 1 0 -725z"/>
<path d="M6610 4775 l0 -125 350 0 350 0 0 125 0 125 -350 0 -350 0 0 -125z"/>
</g>
</svg>
